<svg width="49" height="63" viewBox="0 0 49 63" fill="none" xmlns="http://www.w3.org/2000/svg">
    <rect x="3.25" y="1.25" width="43.5" height="58.5" rx="21.75" fill="#FAECCD" stroke="#303030" stroke-width="0.5"/>
    <g clip-path="url(#clip0)">
        <path d="M22.7674 39.329C22.6239 39.1856 22.3914 39.1856 22.248 39.329C22.1045 39.4725 22.1045 39.705 22.248 39.8484L23.2228 40.8233C23.2946 40.895 23.3886 40.9308 23.4826 40.9308C23.5766 40.9308 23.6706 40.895 23.7423 40.8233C23.8858 40.6798 23.8858 40.4473 23.7423 40.3039L22.7674 39.329Z" fill="black"/>
        <path d="M27.2886 40.9308C27.3826 40.9308 27.4766 40.895 27.5484 40.8233L28.5233 39.8484C28.6667 39.7049 28.6667 39.4724 28.5233 39.329C28.3798 39.1856 28.1473 39.1856 28.0039 39.329L27.029 40.3039C26.8855 40.4474 26.8855 40.6799 27.029 40.8233C27.1007 40.895 27.1947 40.9308 27.2886 40.9308Z" fill="black"/>
        <path d="M36.4038 24C36.2009 24 36.0365 24.1644 36.0365 24.3673C36.0365 25.5361 35.2164 26.5163 34.1215 26.7644C34.3629 26.008 34.4937 25.2027 34.4937 24.3673C34.4937 24.1644 34.3293 24 34.1264 24C33.9235 24 33.7591 24.1644 33.7591 24.3673C33.7591 26.4548 32.8619 28.3365 31.4331 29.6478C29.6236 29.5732 28.1744 28.0785 28.1744 26.2511C28.1744 26.0482 28.01 25.8838 27.8071 25.8838C27.6042 25.8838 27.4398 26.0482 27.4398 26.2511C27.4398 28.2099 28.8094 29.8536 30.6409 30.2783C29.4879 31.0706 28.0929 31.5351 26.5913 31.5351C26.4006 31.5351 26.2416 31.6811 26.2254 31.8712L26.1193 33.1141C25.8776 33.078 25.6324 33.0595 25.3855 33.0595C25.1387 33.0595 24.8935 33.078 24.6518 33.1141L24.5457 31.8712C24.5295 31.6811 24.3705 31.5351 24.1798 31.5351C22.6781 31.5351 21.2832 31.0706 20.1302 30.2783C21.9617 29.8536 23.3312 28.2098 23.3312 26.2511C23.3312 26.0482 23.1669 25.8838 22.964 25.8838C22.7611 25.8838 22.5967 26.0482 22.5967 26.2511C22.5967 28.0785 21.1475 29.5732 19.338 29.6478C17.9092 28.3365 17.012 26.4548 17.012 24.3673C17.012 24.1644 16.8476 24 16.6447 24C16.4418 24 16.2774 24.1644 16.2774 24.3673C16.2774 25.2027 16.4082 26.008 16.6496 26.7644C15.5547 26.5163 14.7346 25.5361 14.7346 24.3673C14.7346 24.1644 14.5702 24 14.3673 24C14.1644 24 14 24.1644 14 24.3673C14 26.045 15.301 27.4237 16.947 27.5498C17.4057 28.5883 18.0819 29.5099 18.9173 30.2571C18.9398 30.2833 18.9657 30.3063 18.9945 30.3253C20.304 31.4665 21.9916 32.1843 23.8419 32.2626L23.9285 33.278C23.1623 33.5122 22.4555 33.9283 21.8774 34.4966L17.964 33.448C17.87 33.4227 17.7698 33.436 17.6853 33.4847C17.601 33.5333 17.5395 33.6136 17.5142 33.7077C17.098 35.261 18.0231 36.8633 19.5764 37.2795C19.8554 37.3542 20.1433 37.3871 20.4303 37.3774C20.3993 37.6037 20.3836 37.8324 20.3836 38.0614C20.3836 39.7773 21.2355 41.3363 22.6708 42.2631L23.3269 45.1304C23.5375 46.0504 24.4417 46.7711 25.3855 46.7711C26.3293 46.7711 27.2336 46.0504 27.4441 45.1303L28.1003 42.2631C29.5356 41.3362 30.3874 39.7772 30.3874 38.0614C30.3874 37.8323 30.3718 37.6036 30.3408 37.3774C30.374 37.3785 30.4071 37.3791 30.4403 37.3791C30.4403 37.3791 30.4403 37.3791 30.4404 37.3791C30.6941 37.3791 30.9479 37.3455 31.1947 37.2794C32.748 36.8632 33.673 35.2609 33.2568 33.7076C33.2316 33.6136 33.1701 33.5333 33.0857 33.4846C33.0013 33.4359 32.9011 33.4228 32.8071 33.4479L28.8937 34.4965C28.3156 33.9283 27.6087 33.5121 26.8425 33.278L26.9292 32.2625C28.7795 32.1842 30.4671 31.4664 31.7766 30.3253C31.8054 30.3062 31.8314 30.2832 31.8538 30.257C32.6891 29.5098 33.3654 28.5883 33.8241 27.5498C35.4701 27.4237 36.7711 26.045 36.7711 24.3673C36.7711 24.1644 36.6067 24 36.4038 24ZM28.5117 35.1571C28.6043 35.2567 28.7444 35.2969 28.8758 35.2618L32.6126 34.2606C32.7098 35.2997 32.0459 36.291 31.0047 36.57C30.665 36.6609 30.3078 36.6685 29.9661 36.5921C29.842 36.5644 29.7124 36.6027 29.6235 36.6935C29.5345 36.7844 29.4989 36.9148 29.5292 37.0382C29.6114 37.3719 29.6529 37.7161 29.6529 38.0614C29.6529 39.5704 28.8805 40.9374 27.5866 41.718C27.5013 41.7695 27.4406 41.8535 27.4183 41.9506L26.7281 44.9665C26.5953 45.5465 25.9805 46.0365 25.3855 46.0365C24.7906 46.0365 24.1757 45.5465 24.043 44.9665L23.3527 41.9505C23.3306 41.8534 23.2698 41.7695 23.1845 41.718C21.8906 40.9373 21.1181 39.5704 21.1181 38.0614C21.1181 37.7161 21.1598 37.3719 21.2418 37.0382C21.2722 36.9147 21.2366 36.7843 21.1476 36.6935C21.0777 36.6221 20.9828 36.5832 20.8852 36.5832C20.8585 36.5832 20.8317 36.5861 20.805 36.592C20.4633 36.6685 20.1061 36.6609 19.7664 36.5699C18.7252 36.2909 18.0613 35.2996 18.1584 34.2605L21.8952 35.2618C22.0267 35.2972 22.1667 35.2567 22.2593 35.1571C23.0646 34.2909 24.204 33.794 25.3855 33.794C26.5671 33.794 27.7065 34.2909 28.5117 35.1571Z" fill="black"/>
    </g>
    <path d="M20.372 53.208V54H17.198V53.37L18.818 51.84C18.99 51.676 19.106 51.536 19.166 51.42C19.226 51.3 19.256 51.182 19.256 51.066C19.256 50.898 19.198 50.77 19.082 50.682C18.97 50.59 18.804 50.544 18.584 50.544C18.4 50.544 18.234 50.58 18.086 50.652C17.938 50.72 17.814 50.824 17.714 50.964L17.006 50.508C17.17 50.264 17.396 50.074 17.684 49.938C17.972 49.798 18.302 49.728 18.674 49.728C18.986 49.728 19.258 49.78 19.49 49.884C19.726 49.984 19.908 50.128 20.036 50.316C20.168 50.5 20.234 50.718 20.234 50.97C20.234 51.198 20.186 51.412 20.09 51.612C19.994 51.812 19.808 52.04 19.532 52.296L18.566 53.208H20.372ZM23.3113 54.072C22.9633 54.072 22.6533 53.986 22.3813 53.814C22.1093 53.642 21.8953 53.394 21.7393 53.07C21.5873 52.742 21.5113 52.352 21.5113 51.9C21.5113 51.448 21.5873 51.06 21.7393 50.736C21.8953 50.408 22.1093 50.158 22.3813 49.986C22.6533 49.814 22.9633 49.728 23.3113 49.728C23.6593 49.728 23.9693 49.814 24.2413 49.986C24.5133 50.158 24.7253 50.408 24.8773 50.736C25.0333 51.06 25.1113 51.448 25.1113 51.9C25.1113 52.352 25.0333 52.742 24.8773 53.07C24.7253 53.394 24.5133 53.642 24.2413 53.814C23.9693 53.986 23.6593 54.072 23.3113 54.072ZM23.3113 53.25C23.5673 53.25 23.7673 53.14 23.9113 52.92C24.0593 52.7 24.1333 52.36 24.1333 51.9C24.1333 51.44 24.0593 51.1 23.9113 50.88C23.7673 50.66 23.5673 50.55 23.3113 50.55C23.0593 50.55 22.8593 50.66 22.7113 50.88C22.5673 51.1 22.4953 51.44 22.4953 51.9C22.4953 52.36 22.5673 52.7 22.7113 52.92C22.8593 53.14 23.0593 53.25 23.3113 53.25ZM29.4365 53.208V54H26.2625V53.37L27.8825 51.84C28.0545 51.676 28.1705 51.536 28.2305 51.42C28.2905 51.3 28.3205 51.182 28.3205 51.066C28.3205 50.898 28.2625 50.77 28.1465 50.682C28.0345 50.59 27.8685 50.544 27.6485 50.544C27.4645 50.544 27.2985 50.58 27.1505 50.652C27.0025 50.72 26.8785 50.824 26.7785 50.964L26.0705 50.508C26.2345 50.264 26.4605 50.074 26.7485 49.938C27.0365 49.798 27.3665 49.728 27.7385 49.728C28.0505 49.728 28.3225 49.78 28.5545 49.884C28.7905 49.984 28.9725 50.128 29.1005 50.316C29.2325 50.5 29.2985 50.718 29.2985 50.97C29.2985 51.198 29.2505 51.412 29.1545 51.612C29.0585 51.812 28.8725 52.04 28.5965 52.296L27.6305 53.208H29.4365ZM32.2075 49.8V54H31.2355V50.58H30.3955V49.8H32.2075Z" fill="black"/>
    <path d="M7.47924 15.8281L12.4673 17.6585L12.0437 18.8128L9.99857 18.0624L9.16707 20.3284L11.2122 21.0788L10.7886 22.2332L5.80053 20.4028L6.22413 19.2485L8.19084 19.9702L9.02235 17.7042L7.05564 16.9825L7.47924 15.8281Z" fill="black"/>
    <path d="M15.0458 15.269C14.4944 15.7906 13.92 16.0449 13.3226 16.032C12.7288 16.0155 12.1642 15.7242 11.6286 15.1581L9.58377 12.9967L10.477 12.1517L12.4906 14.28C13.1444 14.9711 13.758 15.0453 14.3314 14.5028C14.6108 14.2385 14.7457 13.9541 14.7363 13.6496C14.7233 13.3414 14.5482 13.009 14.2109 12.6525L12.1973 10.5241L13.0795 9.6895L15.1244 11.8509C15.6599 12.417 15.9177 12.9987 15.8975 13.5959C15.8811 14.1896 15.5971 14.7473 15.0458 15.269Z" fill="black"/>
    <path d="M20.7395 6.05444L22.6732 11.0033L21.7329 11.3707L18.0915 9.33011L19.2655 12.3348L18.1343 12.7768L16.2007 7.82788L17.148 7.45773L20.7823 9.50111L19.6083 6.49642L20.7395 6.05444Z" fill="black"/>
    <path d="M25.7306 6.68867H24.0304V5.68675H28.6605V6.68867H26.9602V11H25.7306V6.68867Z" fill="black"/>
    <path d="M32.3188 6.80021L33.462 7.25304L31.5054 12.1929L30.3622 11.7401L32.3188 6.80021Z" fill="black"/>
    <path d="M41.0752 12.968L37.4768 16.8772L36.734 16.1935L36.9697 12.026L34.785 14.3994L33.8915 13.5769L37.4899 9.66769L38.2382 10.3565L37.9969 14.5189L40.1817 12.1455L41.0752 12.968Z" fill="black"/>
    <path d="M42.3343 20.8176L42.9169 21.7781L41.0738 22.8961C40.7382 22.7623 40.4222 22.5634 40.1259 22.2993C39.8295 22.0351 39.5816 21.7387 39.3822 21.4099C39.0961 20.9383 38.9384 20.4539 38.9091 19.9568C38.8842 19.457 38.9834 18.9914 39.207 18.5599C39.4375 18.13 39.7777 17.7787 40.2277 17.5057C40.6776 17.2328 41.1443 17.0947 41.6277 17.0915C42.118 17.09 42.5781 17.2193 43.0081 17.4793C43.4424 17.7366 43.8039 18.1033 44.0926 18.5792C44.334 18.9772 44.4861 19.3792 44.5488 19.785C44.6115 20.1909 44.5821 20.5815 44.4607 20.957L43.4283 20.66C43.5733 20.1282 43.5067 19.633 43.2285 19.1744C43.0526 18.8845 42.8359 18.6638 42.5783 18.5123C42.3207 18.3608 42.0435 18.2893 41.7467 18.2977C41.45 18.306 41.1588 18.3968 40.8733 18.57C40.5921 18.7406 40.3792 18.9556 40.2346 19.2149C40.0901 19.4742 40.022 19.7522 40.0304 20.049C40.0457 20.3475 40.14 20.6395 40.3132 20.925C40.4969 21.2279 40.7271 21.4611 41.0039 21.6246L42.3343 20.8176Z" fill="black"/>
    <defs>
        <clipPath id="clip0">
            <rect width="22.7711" height="22.7711" fill="white" transform="translate(14 24)"/>
        </clipPath>
    </defs>
</svg>
