<svg class="map-clip" viewBox="0 0 1 1">
    <clipPath id="mapClip" clipPathUnits="objectBoundingBox">
        <path fill="white"
              d="M428.3 58.44c3.13,-5.65 4.91,-12.14 4.91,-19.06 0,-21.75 -17.63,-39.38 -39.38,-39.38 -21.75,0 -39.38,17.63 -39.38,39.38 0,21.75 17.63,39.39 39.38,39.39 5.05,0 9.88,-0.96 14.32,-2.69 -8.98,11.64 -14.32,26.23 -14.32,42.07 0,4.39 0.41,8.69 1.2,12.86 -32.55,-71.47 -104.61,-121.16 -188.27,-121.16 -114.19,0 -206.76,92.57 -206.76,206.76 0,114.19 92.57,206.76 206.76,206.76 114.19,0 206.76,-92.57 206.76,-206.76 0,-21.83 -3.38,-42.87 -9.65,-62.63 12.1,19.84 33.94,33.09 58.88,33.09 38.06,0 68.92,-30.86 68.92,-68.92 0,-38.07 -30.86,-68.92 -68.92,-68.92 -12.55,0 -24.31,3.35 -34.45,9.21z"
              transform="scale(.0018,.0023)"></path>
    </clipPath>
    <mask id="mapMask" clipPathUnits="objectBoundingBox">
        <path fill="white"
              d="M428.3 58.44c3.13,-5.65 4.91,-12.14 4.91,-19.06 0,-21.75 -17.63,-39.38 -39.38,-39.38 -21.75,0 -39.38,17.63 -39.38,39.38 0,21.75 17.63,39.39 39.38,39.39 5.05,0 9.88,-0.96 14.32,-2.69 -8.98,11.64 -14.32,26.23 -14.32,42.07 0,4.39 0.41,8.69 1.2,12.86 -32.55,-71.47 -104.61,-121.16 -188.27,-121.16 -114.19,0 -206.76,92.57 -206.76,206.76 0,114.19 92.57,206.76 206.76,206.76 114.19,0 206.76,-92.57 206.76,-206.76 0,-21.83 -3.38,-42.87 -9.65,-62.63 12.1,19.84 33.94,33.09 58.88,33.09 38.06,0 68.92,-30.86 68.92,-68.92 0,-38.07 -30.86,-68.92 -68.92,-68.92 -12.55,0 -24.31,3.35 -34.45,9.21z"
              transform="scale(.0018,.0023)"></path>
    </mask>
</svg>
