<svg width="49" height="63" fill="none" xmlns="http://www.w3.org/2000/svg"><rect x="3.25" y="1.25" width="43.5" height="58.5" rx="21.75" fill="#FAECCD" stroke="#303030" stroke-width=".5"/><g clip-path="url(#clip0)" fill="#000"><path d="M22.767 39.329a.367.367 0 00-.519.52l.975.974a.366.366 0 10.52-.52l-.976-.974zm4.522 1.601a.366.366 0 00.26-.107l.974-.975a.367.367 0 00-.52-.519l-.974.975a.367.367 0 00.26.627z"/><path d="M36.404 24a.367.367 0 00-.368.367c0 1.17-.82 2.15-1.915 2.397a7.871 7.871 0 00.373-2.397.367.367 0 10-.735 0 7.15 7.15 0 01-2.326 5.28 3.404 3.404 0 01-3.259-3.396.367.367 0 10-.734 0 4.141 4.141 0 003.2 4.027 7.128 7.128 0 01-4.049 1.257c-.19 0-.35.146-.366.336l-.106 1.243a4.967 4.967 0 00-1.467 0l-.106-1.243a.367.367 0 00-.366-.336 7.127 7.127 0 01-4.05-1.257 4.141 4.141 0 003.201-4.027.367.367 0 10-.734 0 3.404 3.404 0 01-3.259 3.397 7.15 7.15 0 01-2.326-5.28.367.367 0 10-.735 0c0 .835.131 1.64.373 2.396a2.462 2.462 0 01-1.915-2.397.367.367 0 10-.735 0 3.197 3.197 0 002.947 3.183 7.94 7.94 0 001.97 2.707.38.38 0 00.077.068 7.869 7.869 0 004.848 1.938l.087 1.015a5.022 5.022 0 00-2.052 1.219l-3.913-1.049a.367.367 0 00-.45.26 2.92 2.92 0 002.916 3.67 5.042 5.042 0 00-.046.683c0 1.716.851 3.275 2.287 4.202l.656 2.867c.21.92 1.115 1.641 2.058 1.641.944 0 1.849-.72 2.06-1.64l.655-2.868a4.965 4.965 0 002.287-4.202c0-.229-.015-.457-.046-.684a2.917 2.917 0 002.916-3.67.367.367 0 00-.45-.26l-3.913 1.05a5.022 5.022 0 00-2.051-1.219l.086-1.015a7.87 7.87 0 004.848-1.938.372.372 0 00.077-.068 7.942 7.942 0 001.97-2.707 3.197 3.197 0 002.947-3.183.367.367 0 00-.367-.367zm-7.892 11.157c.092.1.232.14.364.105l3.737-1.001a2.185 2.185 0 01-2.647 2.331.367.367 0 00-.437.446c.082.334.124.678.124 1.023a4.239 4.239 0 01-2.066 3.657.368.368 0 00-.169.233l-.69 3.016c-.133.58-.748 1.07-1.343 1.07-.594 0-1.21-.49-1.342-1.07l-.69-3.017a.367.367 0 00-.169-.232 4.239 4.239 0 01-2.066-3.657c0-.345.042-.69.124-1.023a.367.367 0 00-.437-.446 2.185 2.185 0 01-2.647-2.331l3.737 1a.367.367 0 00.364-.104 4.283 4.283 0 013.127-1.363c1.181 0 2.32.497 3.126 1.363z"/></g><path d="M20.372 53.208V54h-3.174v-.63l1.62-1.53c.172-.164.288-.304.348-.42.06-.12.09-.238.09-.354a.452.452 0 00-.174-.384c-.112-.092-.278-.138-.498-.138-.184 0-.35.036-.498.108a.93.93 0 00-.372.312l-.708-.456a1.64 1.64 0 01.678-.57c.288-.14.618-.21.99-.21.312 0 .584.052.816.156.236.1.418.244.546.432.132.184.198.402.198.654 0 .228-.048.442-.144.642-.096.2-.282.428-.558.684l-.966.912h1.806zm2.94.864c-.349 0-.659-.086-.93-.258a1.754 1.754 0 01-.643-.744c-.152-.328-.228-.718-.228-1.17 0-.452.076-.84.228-1.164.156-.328.37-.578.642-.75.272-.172.582-.258.93-.258.348 0 .658.086.93.258.272.172.484.422.636.75.156.324.234.712.234 1.164 0 .452-.078.842-.234 1.17a1.715 1.715 0 01-.636.744 1.703 1.703 0 01-.93.258zm0-.822a.68.68 0 00.6-.33c.147-.22.221-.56.221-1.02 0-.46-.074-.8-.222-1.02a.68.68 0 00-.6-.33.689.689 0 00-.6.33c-.144.22-.216.56-.216 1.02 0 .46.072.8.216 1.02.148.22.348.33.6.33zm6.124-.042V54h-3.174v-.63l1.62-1.53c.172-.164.288-.304.348-.42.06-.12.09-.238.09-.354a.452.452 0 00-.174-.384c-.111-.092-.277-.138-.498-.138-.183 0-.35.036-.497.108a.93.93 0 00-.372.312l-.709-.456a1.64 1.64 0 01.678-.57c.288-.14.618-.21.99-.21.313 0 .585.052.817.156.236.1.418.244.546.432.132.184.198.402.198.654 0 .228-.049.442-.145.642-.096.2-.282.428-.558.684l-.965.912h1.805zm2.772-3.408V54h-.973v-3.42h-.84v-.78h1.813zM7.48 15.828l4.987 1.83-.423 1.155-2.045-.75-.832 2.265 2.045.75-.423 1.155-4.988-1.83.423-1.154 1.967.721.831-2.266-1.966-.721.423-1.155zm7.566-.559c-.552.522-1.126.776-1.723.763-.594-.017-1.159-.308-1.694-.874l-2.045-2.161.893-.845 2.014 2.128c.653.691 1.267.765 1.84.223.28-.264.415-.549.405-.853-.013-.309-.188-.641-.525-.998l-2.014-2.128.883-.834 2.044 2.16c.536.567.794 1.149.774 1.746-.017.594-.3 1.151-.852 1.673zm5.694-9.215l1.933 4.95-.94.367-3.642-2.04 1.174 3.004-1.13.442-1.934-4.95.947-.37 3.634 2.044-1.174-3.005 1.131-.442zm4.99.635h-1.7V5.687h4.63v1.002h-1.7V11h-1.23V6.689zm6.589.111l1.143.453-1.957 4.94-1.143-.453L32.32 6.8zm8.756 6.168l-3.598 3.91-.743-.684.236-4.168-2.185 2.373-.893-.822 3.598-3.91.748.69-.241 4.162 2.185-2.373.893.822zm1.259 7.85l.583.96-1.843 1.118a3.21 3.21 0 01-.948-.597 3.889 3.889 0 01-.744-.89 3.133 3.133 0 01-.473-1.452c-.025-.5.074-.966.298-1.397.23-.43.57-.781 1.02-1.054.45-.273.917-.411 1.4-.415.491-.001.951.128 1.381.388a3.15 3.15 0 011.085 1.1c.241.398.393.8.456 1.206.063.406.033.796-.088 1.172l-1.033-.297a1.825 1.825 0 00-.2-1.486 1.876 1.876 0 00-.65-.662 1.524 1.524 0 00-.831-.214 1.765 1.765 0 00-.874.272 1.75 1.75 0 00-.638.645 1.59 1.59 0 00-.205.834c.016.299.11.59.283.876.184.303.414.536.69.7l1.331-.807z" fill="#000"/><defs><clipPath id="clip0"><path fill="#fff" transform="translate(14 24)" d="M0 0h22.771v22.771H0z"/></clipPath></defs></svg>