<svg class="map-clip" viewBox="0 0 1 1"><clipPath id="mapClip" clipPathUnits="objectBoundingBox"><path fill="#fff" d="M428.3 58.44a39.188 39.188 0 004.91-19.06C433.21 17.63 415.58 0 393.83 0c-21.75 0-39.38 17.63-39.38 39.38 0 21.75 17.63 39.39 39.38 39.39 5.05 0 9.88-.96 14.32-2.69-8.98 11.64-14.32 26.23-14.32 42.07 0 4.39.41 8.69 1.2 12.86C362.48 59.54 290.42 9.85 206.76 9.85 92.57 9.85 0 102.42 0 216.61s92.57 206.76 206.76 206.76 206.76-92.57 206.76-206.76c0-21.83-3.38-42.87-9.65-62.63 12.1 19.84 33.94 33.09 58.88 33.09 38.06 0 68.92-30.86 68.92-68.92 0-38.07-30.86-68.92-68.92-68.92-12.55 0-24.31 3.35-34.45 9.21z" transform="scale(.0018 .0023)"/></clipPath><mask id="mapMask"><path fill="#fff" d="M428.3 58.44a39.188 39.188 0 004.91-19.06C433.21 17.63 415.58 0 393.83 0c-21.75 0-39.38 17.63-39.38 39.38 0 21.75 17.63 39.39 39.38 39.39 5.05 0 9.88-.96 14.32-2.69-8.98 11.64-14.32 26.23-14.32 42.07 0 4.39.41 8.69 1.2 12.86C362.48 59.54 290.42 9.85 206.76 9.85 92.57 9.85 0 102.42 0 216.61s92.57 206.76 206.76 206.76 206.76-92.57 206.76-206.76c0-21.83-3.38-42.87-9.65-62.63 12.1 19.84 33.94 33.09 58.88 33.09 38.06 0 68.92-30.86 68.92-68.92 0-38.07-30.86-68.92-68.92-68.92-12.55 0-24.31 3.35-34.45 9.21z" transform="scale(.0018 .0023)"/></mask></svg>